<svg xmlns="http://www.w3.org/2000/svg" xmlns:xlink="http://www.w3.org/1999/xlink" width="1080" zoomAndPan="magnify" viewBox="0 0 810 809.999993" height="1080" preserveAspectRatio="xMidYMid meet" version="1.0"><defs><clipPath id="dc7a122377"><path d="M 208.066406 208.066406 L 601.816406 208.066406 L 601.816406 601.816406 L 208.066406 601.816406 Z M 208.066406 208.066406 " clip-rule="nonzero"/></clipPath></defs><g clip-path="url(#dc7a122377)"><path fill="#be8f6e" d="M 408.167969 601.921875 L 401.820312 601.921875 C 401.820312 550.160156 382.460938 504.902344 343.777344 466.214844 C 305.089844 427.527344 259.863281 408.167969 208.066406 408.167969 L 208.066406 401.820312 C 259.863281 401.820312 305.089844 382.460938 343.777344 343.679688 C 382.460938 304.898438 401.820312 259.671875 401.820312 208.066406 L 408.167969 208.066406 C 408.167969 259.832031 427.527344 305.089844 466.214844 343.777344 C 504.902344 382.460938 550.125 401.820312 601.921875 401.820312 L 601.921875 408.167969 C 550.160156 408.167969 504.902344 427.527344 466.214844 466.214844 C 427.527344 504.902344 408.167969 550.125 408.167969 601.921875 Z M 408.167969 601.921875 " fill-opacity="1" fill-rule="evenodd"/></g></svg>